<svg xmlns="http://www.w3.org/2000/svg" width="50" height="50" viewBox="0 0 50 50"><path d="M48.6 1.3C44-3.4 31.7 4.6 29.1 7.2l-2.7 2.7-5.3 5.4-14.1.4c-.5 0-.9.2-1.3.6L2.1 20c-.7.8-.7 2 0 2.7L9.2 30l10.9 11 7.2 7.3c.4.4.9.6 1.4.6s1-.2 1.4-.6l3.7-3.7c.3-.3.5-.8.6-1.3l.5-14.3 5.3-5.4 2.7-2.7c2.4-2.5 10.3-15 5.7-19.6zM7.9 19.5l9.3-.3-6.6 6.7-4.5-4.5 1.8-1.9zm15.5-1l4.5-4.5 4.1 4.1 4.1 4.1-4.5 4.5-10 10.1-8.2-8.3 10-10zm7.1 23.8l-1.8 1.8-4.5-4.5 6.6-6.7-.3 9.4zM40 18.2l-1.3 1.3-4.1-4.1-4.1-4.1 1.3-1.3c1.2-1.2 4.4-3.4 7.8-4.8 3.8-1.6 5.8-1.5 6.3-1.1 1.3 1.2-2.1 10.2-5.9 14.1zM10.8 33.9c-.7-.8-2-.8-2.7 0L.6 41.5c-.7.8-.7 2 0 2.7.4.4.9.6 1.4.6s1-.2 1.4-.6l7.5-7.6c.7-.7.7-2-.1-2.7zm2.8 5.5l-4.5 4.5c-.7.8-.7 2 0 2.7.4.4.9.6 1.4.6s1-.2 1.4-.6l4.5-4.5c.7-.8.7-2 0-2.7-.9-.7-2.1-.7-2.8 0z" fill="#00658C"/></svg>